HIERARCHY
ROOT mixamorig:Hips
{
	OFFSET 0.000000 201.639420 0.000000
	CHANNELS 6 Xposition Yposition Zposition Xrotation Yrotation Zrotation
	JOINT mixamorig:Spine
	{
		OFFSET 0.006200 19.524994 -2.481800
		CHANNELS 3 Xrotation Yrotation Zrotation
		JOINT mixamorig:Spine1
		{
			OFFSET -0.000900 22.835007 -2.825400
			CHANNELS 3 Xrotation Yrotation Zrotation
			JOINT mixamorig:Spine2
			{
				OFFSET -0.020600 26.552490 -3.193300
				CHANNELS 3 Xrotation Yrotation Zrotation
				JOINT mixamorig:Neck
				{
					OFFSET -0.060000 30.701813 1.352200
					CHANNELS 3 Xrotation Yrotation Zrotation
					JOINT mixamorig:Head
					{
						OFFSET -0.087200 22.547607 3.670900
						CHANNELS 3 Xrotation Yrotation Zrotation
						JOINT mixamorig:HeadTop_End
						{
							OFFSET -0.830600 40.355194 7.893500
							CHANNELS 3 Xrotation Yrotation Zrotation
							End Site
							{
								OFFSET 0.000000 30.592346 0.000000
							}
						}
						JOINT mixamorig:RightEye
						{
							OFFSET -6.302100 18.118591 16.197100
							CHANNELS 3 Xrotation Yrotation Zrotation
							End Site
							{
								OFFSET 0.000000 30.592346 0.000000
							}
						}
						JOINT mixamorig:LeftEye
						{
							OFFSET 6.741500 18.382690 16.401899
							CHANNELS 3 Xrotation Yrotation Zrotation
							End Site
							{
								OFFSET 0.000000 30.592346 0.000000
							}
						}
					}
				}
				JOINT mixamorig:LeftShoulder
				{
					OFFSET 11.924900 18.230499 1.425400
					CHANNELS 3 Xrotation Yrotation Zrotation
					JOINT mixamorig:LeftArm
					{
						OFFSET 25.435989 -0.697632 -5.229300
						CHANNELS 3 Xrotation Yrotation Zrotation
						JOINT mixamorig:LeftForeArm
						{
							OFFSET 54.684776 0.000000 0.000000
							CHANNELS 3 Xrotation Yrotation Zrotation
							JOINT mixamorig:LeftHand
							{
								OFFSET 55.098175 0.000000 0.000000
								CHANNELS 3 Xrotation Yrotation Zrotation
								JOINT mixamorig:LeftHandMiddle1
								{
									OFFSET 23.369751 0.000000 0.000000
									CHANNELS 3 Xrotation Yrotation Zrotation
									JOINT mixamorig:LeftHandMiddle2
									{
										OFFSET 6.378677 0.000000 0.000000
										CHANNELS 3 Xrotation Yrotation Zrotation
										JOINT mixamorig:LeftHandMiddle3
										{
											OFFSET 6.148331 0.000000 0.000000
											CHANNELS 3 Xrotation Yrotation Zrotation
											JOINT mixamorig:LeftHandMiddle4
											{
												OFFSET 6.582504 0.000000 0.000000
												CHANNELS 3 Xrotation Yrotation Zrotation
												End Site
												{
													OFFSET -1.168900 6.395691 1.028606
												}
											}
										}
									}
								}
								JOINT mixamorig:LeftHandThumb1
								{
									OFFSET 7.235672 -3.848206 5.434273
									CHANNELS 3 Xrotation Yrotation Zrotation
									JOINT mixamorig:LeftHandThumb2
									{
										OFFSET 6.568451 -3.792297 3.792300
										CHANNELS 3 Xrotation Yrotation Zrotation
										JOINT mixamorig:LeftHandThumb3
										{
											OFFSET 6.063080 -3.500519 3.500518
											CHANNELS 3 Xrotation Yrotation Zrotation
											JOINT mixamorig:LeftHandThumb4
											{
												OFFSET 4.793182 -2.767334 2.767349
												CHANNELS 3 Xrotation Yrotation Zrotation
												End Site
												{
													OFFSET 0.101639 6.054260 1.275483
												}
											}
										}
									}
								}
								JOINT mixamorig:LeftHandIndex1
								{
									OFFSET 23.101074 -0.309540 4.992809
									CHANNELS 3 Xrotation Yrotation Zrotation
									JOINT mixamorig:LeftHandIndex2
									{
										OFFSET 6.226883 0.000000 0.000000
										CHANNELS 3 Xrotation Yrotation Zrotation
										JOINT mixamorig:LeftHandIndex3
										{
											OFFSET 6.094330 0.000000 0.000000
											CHANNELS 3 Xrotation Yrotation Zrotation
											JOINT mixamorig:LeftHandIndex4
											{
												OFFSET 5.482605 0.000000 0.000000
												CHANNELS 3 Xrotation Yrotation Zrotation
												End Site
												{
													OFFSET -1.427902 5.233032 0.797164
												}
											}
										}
									}
								}
								JOINT mixamorig:LeftHandRing1
								{
									OFFSET 22.299240 0.021149 -3.964172
									CHANNELS 3 Xrotation Yrotation Zrotation
									JOINT mixamorig:LeftHandRing2
									{
										OFFSET 6.321869 0.000000 0.000000
										CHANNELS 3 Xrotation Yrotation Zrotation
										JOINT mixamorig:LeftHandRing3
										{
											OFFSET 5.899796 0.000000 0.000000
											CHANNELS 3 Xrotation Yrotation Zrotation
											JOINT mixamorig:LeftHandRing4
											{
												OFFSET 6.517899 0.000000 0.000000
												CHANNELS 3 Xrotation Yrotation Zrotation
												End Site
												{
													OFFSET -1.637299 6.232208 0.980890
												}
											}
										}
									}
								}
								JOINT mixamorig:LeftHandPinky1
								{
									OFFSET 20.463791 -0.302338 -8.562233
									CHANNELS 3 Xrotation Yrotation Zrotation
									JOINT mixamorig:LeftHandPinky2
									{
										OFFSET 6.908646 0.000000 0.000000
										CHANNELS 3 Xrotation Yrotation Zrotation
										JOINT mixamorig:LeftHandPinky3
										{
											OFFSET 4.622849 0.000000 0.000000
											CHANNELS 3 Xrotation Yrotation Zrotation
											JOINT mixamorig:LeftHandPinky4
											{
												OFFSET 5.216080 0.000000 0.000000
												CHANNELS 3 Xrotation Yrotation Zrotation
												End Site
												{
													OFFSET -0.606308 5.116241 0.814926
												}
											}
										}
									}
								}
							}
						}
					}
				}
				JOINT mixamorig:RightShoulder
				{
					OFFSET -12.001300 18.284088 1.348900
					CHANNELS 3 Xrotation Yrotation Zrotation
					JOINT mixamorig:RightArm
					{
						OFFSET -25.308500 -0.751312 -5.164599
						CHANNELS 3 Xrotation Yrotation Zrotation
						JOINT mixamorig:RightForeArm
						{
							OFFSET -54.684429 0.000000 0.000000
							CHANNELS 3 Xrotation Yrotation Zrotation
							JOINT mixamorig:RightHand
							{
								OFFSET -55.150291 0.000000 0.000000
								CHANNELS 3 Xrotation Yrotation Zrotation
								JOINT mixamorig:RightHandMiddle1
								{
									OFFSET -23.317566 0.000000 0.000000
									CHANNELS 3 Xrotation Yrotation Zrotation
									JOINT mixamorig:RightHandMiddle2
									{
										OFFSET -6.378403 0.000000 0.000000
										CHANNELS 3 Xrotation Yrotation Zrotation
										JOINT mixamorig:RightHandMiddle3
										{
											OFFSET -6.148193 0.000000 0.000000
											CHANNELS 3 Xrotation Yrotation Zrotation
											JOINT mixamorig:RightHandMiddle4
											{
												OFFSET -6.583389 0.000000 0.000000
												CHANNELS 3 Xrotation Yrotation Zrotation
												End Site
												{
													OFFSET 1.171692 6.395905 1.029786
												}
											}
										}
									}
								}
								JOINT mixamorig:RightHandThumb1
								{
									OFFSET -7.190521 -3.860474 5.435846
									CHANNELS 3 Xrotation Yrotation Zrotation
									JOINT mixamorig:RightHandThumb2
									{
										OFFSET -6.567429 -3.791718 3.791708
										CHANNELS 3 Xrotation Yrotation Zrotation
										JOINT mixamorig:RightHandThumb3
										{
											OFFSET -6.062469 -3.500153 3.500166
											CHANNELS 3 Xrotation Yrotation Zrotation
											JOINT mixamorig:RightHandThumb4
											{
												OFFSET -4.792618 -2.767029 2.767022
												CHANNELS 3 Xrotation Yrotation Zrotation
												End Site
												{
													OFFSET -0.100327 6.053253 1.276754
												}
											}
										}
									}
								}
								JOINT mixamorig:RightHandIndex1
								{
									OFFSET -23.048981 -0.310791 4.992554
									CHANNELS 3 Xrotation Yrotation Zrotation
									JOINT mixamorig:RightHandIndex2
									{
										OFFSET -6.227539 0.000000 0.000000
										CHANNELS 3 Xrotation Yrotation Zrotation
										JOINT mixamorig:RightHandIndex3
										{
											OFFSET -6.095047 0.000000 0.000000
											CHANNELS 3 Xrotation Yrotation Zrotation
											JOINT mixamorig:RightHandIndex4
											{
												OFFSET -5.484772 0.000000 0.000000
												CHANNELS 3 Xrotation Yrotation Zrotation
												End Site
												{
													OFFSET 1.420593 5.237305 0.797056
												}
											}
										}
									}
								}
								JOINT mixamorig:RightHandRing1
								{
									OFFSET -22.246323 0.020569 -3.963762
									CHANNELS 3 Xrotation Yrotation Zrotation
									JOINT mixamorig:RightHandRing2
									{
										OFFSET -6.322128 0.000000 0.000000
										CHANNELS 3 Xrotation Yrotation Zrotation
										JOINT mixamorig:RightHandRing3
										{
											OFFSET -5.900024 0.000000 0.000000
											CHANNELS 3 Xrotation Yrotation Zrotation
											JOINT mixamorig:RightHandRing4
											{
												OFFSET -6.518356 0.000000 0.000000
												CHANNELS 3 Xrotation Yrotation Zrotation
												End Site
												{
													OFFSET 1.636398 6.232697 0.982186
												}
											}
										}
									}
								}
								JOINT mixamorig:RightHandPinky1
								{
									OFFSET -20.411011 -0.303314 -8.561701
									CHANNELS 3 Xrotation Yrotation Zrotation
									JOINT mixamorig:RightHandPinky2
									{
										OFFSET -6.907349 0.000000 0.000000
										CHANNELS 3 Xrotation Yrotation Zrotation
										JOINT mixamorig:RightHandPinky3
										{
											OFFSET -4.623840 0.000000 0.000000
											CHANNELS 3 Xrotation Yrotation Zrotation
											JOINT mixamorig:RightHandPinky4
											{
												OFFSET -5.218353 0.000000 0.000000
												CHANNELS 3 Xrotation Yrotation Zrotation
												End Site
												{
													OFFSET 0.602097 5.118835 0.816273
												}
											}
										}
									}
								}
							}
						}
					}
				}
			}
		}
	}
	JOINT mixamorig:LeftUpLeg
	{
		OFFSET 18.168400 -13.561905 -0.039000
		CHANNELS 3 Xrotation Yrotation Zrotation
		JOINT mixamorig:LeftLeg
		{
			OFFSET 0.577358 -80.825211 -3.695000
			CHANNELS 3 Xrotation Yrotation Zrotation
			JOINT mixamorig:LeftFoot
			{
				OFFSET -0.577356 -83.370262 -6.520700
				CHANNELS 3 Xrotation Yrotation Zrotation
				JOINT mixamorig:LeftToeBase
				{
					OFFSET 0.750401 -20.798306 25.135401
					CHANNELS 3 Xrotation Yrotation Zrotation
					JOINT mixamorig:LeftToe_End
					{
						OFFSET -0.000500 0.001200 19.917799
						CHANNELS 3 Xrotation Yrotation Zrotation
						End Site
						{
							OFFSET 0.000000 19.917805 0.000000
						}
					}
				}
			}
		}
	}
	JOINT mixamorig:RightUpLeg
	{
		OFFSET -18.162500 -13.585098 -0.041000
		CHANNELS 3 Xrotation Yrotation Zrotation
		JOINT mixamorig:RightLeg
		{
			OFFSET -0.595024 -80.945297 -3.631900
			CHANNELS 3 Xrotation Yrotation Zrotation
			JOINT mixamorig:RightFoot
			{
				OFFSET 0.595024 -83.218193 -6.561200
				CHANNELS 3 Xrotation Yrotation Zrotation
				JOINT mixamorig:RightToeBase
				{
					OFFSET -0.753601 -20.807106 25.115000
					CHANNELS 3 Xrotation Yrotation Zrotation
					JOINT mixamorig:RightToe_End
					{
						OFFSET 0.000299 0.001700 19.918200
						CHANNELS 3 Xrotation Yrotation Zrotation
						End Site
						{
							OFFSET 0.000000 19.918203 0.000000
						}
					}
				}
			}
		}
	}
}
MOTION
Frames: 4
Frame Time: 0.033333
0.213291 190.385361 -0.111740 1.907198 -39.952430 -0.939649 2.655391 0.297276 0.926943 5.309827 0.584780 1.360547 5.309827 0.584778 1.360548 8.540761 3.537749 5.388417 -0.421543 27.567152 -15.194362 -0.000004 -0.000000 -0.000000 -0.000004 -0.000000 -0.000000 -0.000004 -0.000000 -0.000000 0.321504 -7.051635 -10.129196 -56.268598 -33.801749 -54.178857 0.064164 -52.620054 0.105997 -103.297206 -1.678379 14.695179 1.545976 -9.541002 -47.219024 -5.379895 -4.130109 -98.553913 0.000001 -0.000000 0.000003 -0.000001 0.000001 0.000002 -11.681334 -1.386983 19.278771 -2.561587 1.557946 2.733569 0.000015 0.000009 0.000010 0.000000 -0.000000 -0.000001 -0.008667 -2.430600 1.545781 1.412641 1.230430 -113.773664 0.000008 -0.000003 -0.000006 0.000003 -0.000000 -0.000001 -3.769735 -17.550453 -68.269175 -5.814593 -5.296464 -101.280388 -0.000001 0.000007 0.000002 -0.000002 0.000000 0.000003 -8.784698 -14.195335 -74.601915 -7.745692 -9.401299 -99.053159 0.000000 -0.000011 0.000001 0.000000 0.000004 -0.000000 0.553508 6.604023 2.943752 -34.077600 72.637587 45.057843 0.276188 70.671271 -0.281435 -56.147481 -2.003483 -20.462777 -2.200713 -2.191367 59.974880 -11.333608 1.304669 101.375348 -0.000009 0.000007 -0.000009 0.000001 0.000000 -0.000000 11.406792 -0.745919 10.777394 17.778421 -14.832278 -11.843358 0.000002 -0.000004 -0.000003 -0.000004 0.000000 0.000000 -7.766731 -2.132701 17.127365 -0.780860 -1.851314 83.350062 0.000016 -0.000003 0.000001 0.000001 -0.000000 -0.000001 -6.662043 -2.169621 74.620090 -15.926965 7.668130 95.919932 -0.000008 -0.000001 -0.000012 0.000001 0.000001 -0.000001 -13.810326 -5.738192 81.209631 -9.284885 9.771655 84.621304 0.000005 0.000003 0.000012 -0.000001 0.000001 -0.000001 -32.309066 8.763455 18.434074 35.409736 -0.225241 -1.323485 -2.090487 19.559263 -8.467094 -6.644316 -0.037574 0.077044 -0.000000 0.000000 0.000000 -18.390279 -9.209811 -11.750498 34.337345 0.325915 1.320932 -15.315384 -9.930146 9.480180 0.000047 -0.113018 0.000004 -0.000000 0.000000 0.000000 
0.293364 190.269775 0.046670 1.878162 -40.129025 -0.977285 2.666705 0.364471 0.906084 5.332410 0.718157 1.313668 5.332406 0.718172 1.313664 8.553997 3.508979 5.548560 -0.334618 27.518305 -15.202638 -0.000000 -0.000000 0.000000 -0.000000 -0.000000 0.000000 -0.000000 -0.000000 0.000000 0.335715 -6.974795 -9.857815 -56.603977 -33.801244 -54.696367 0.063933 -52.461771 0.105892 -103.214977 -1.691223 14.640592 1.545969 -9.541002 -47.219024 -5.379898 -4.130104 -98.553906 0.000003 0.000001 -0.000003 -0.000001 -0.000002 0.000003 -11.681343 -1.386984 19.278776 -2.561587 1.557946 2.733567 0.000015 0.000002 0.000007 -0.000001 0.000003 -0.000002 -0.008668 -2.430602 1.545784 1.412637 1.230431 -113.773664 0.000009 0.000002 -0.000007 -0.000002 0.000001 -0.000000 -3.769739 -17.550461 -68.269168 -5.814590 -5.296464 -101.280388 -0.000002 0.000009 0.000001 -0.000001 -0.000001 -0.000000 -8.784704 -14.195337 -74.601908 -7.745691 -9.401299 -99.053152 0.000000 -0.000007 0.000001 0.000000 -0.000004 -0.000000 0.551974 6.534622 3.031841 -33.692319 72.438671 44.602375 0.281142 70.969306 -0.285930 -56.152440 -2.133873 -20.549316 -2.200714 -2.191367 59.974880 -11.333606 1.304673 101.375348 -0.000010 0.000006 -0.000009 0.000003 -0.000001 0.000001 11.406788 -0.745918 10.777393 17.778424 -14.832280 -11.843358 0.000002 -0.000003 -0.000002 0.000001 -0.000001 0.000000 -7.766733 -2.132701 17.127372 -0.780858 -1.851313 83.350062 0.000016 -0.000003 -0.000000 0.000001 -0.000000 -0.000001 -6.662046 -2.169622 74.620090 -15.926961 7.668130 95.919926 -0.000008 -0.000003 -0.000009 -0.000001 0.000000 -0.000002 -13.810328 -5.738193 81.209631 -9.284888 9.771659 84.621304 0.000005 0.000003 0.000007 -0.000001 0.000000 0.000001 -32.354685 8.636166 18.428438 35.763383 -0.228476 -1.334706 -2.315921 19.824144 -8.482708 -6.644268 -0.037561 0.077045 -0.000000 -0.000000 -0.000000 -18.440213 -8.979155 -11.742078 34.513431 0.321070 1.325870 -15.393667 -9.922555 9.544166 0.000022 -0.112676 0.000005 0.000000 0.000000 0.000000 
0.378252 190.136475 0.265241 1.843290 -40.349619 -1.052201 2.676565 0.427222 0.892183 5.352159 0.842633 1.277458 5.352169 0.842612 1.277462 8.574519 3.504492 5.665745 -0.177492 27.553480 -15.205183 0.000002 -0.000000 0.000000 0.000002 -0.000000 0.000000 0.000002 -0.000000 0.000000 0.346661 -6.905307 -9.662748 -56.866601 -33.815864 -55.062588 0.063667 -52.325874 0.105835 -103.169454 -1.702601 14.609710 1.545963 -9.541003 -47.219017 -5.379896 -4.130109 -98.553899 -0.000001 -0.000001 -0.000002 -0.000000 -0.000001 0.000004 -11.681342 -1.386985 19.278774 -2.561586 1.557950 2.733568 0.000012 0.000003 0.000009 0.000003 0.000002 0.000002 -0.008669 -2.430601 1.545782 1.412641 1.230424 -113.773664 0.000012 -0.000001 -0.000008 -0.000000 -0.000001 0.000004 -3.769739 -17.550453 -68.269175 -5.814591 -5.296464 -101.280388 -0.000002 0.000009 0.000000 0.000000 -0.000001 -0.000001 -8.784707 -14.195338 -74.601908 -7.745692 -9.401300 -99.053152 -0.000001 -0.000006 0.000001 -0.000001 0.000002 0.000002 0.552067 6.460663 3.062486 -33.649374 72.315318 44.503689 0.283998 71.127999 -0.288414 -56.161651 -2.220633 -20.563847 -2.200713 -2.191367 59.974887 -11.333606 1.304672 101.375348 -0.000007 0.000006 -0.000009 0.000002 0.000000 -0.000002 11.406792 -0.745920 10.777392 17.778427 -14.832280 -11.843358 -0.000002 -0.000002 -0.000002 -0.000006 -0.000001 -0.000000 -7.766732 -2.132701 17.127369 -0.780859 -1.851313 83.350062 0.000016 -0.000004 0.000002 0.000001 -0.000000 -0.000002 -6.662043 -2.169621 74.620090 -15.926961 7.668130 95.919932 -0.000006 -0.000000 -0.000007 -0.000002 0.000002 -0.000001 -13.810327 -5.738192 81.209631 -9.284887 9.771658 84.621304 0.000007 0.000005 0.000009 0.000001 0.000001 0.000001 -32.423854 8.503516 18.458532 36.202455 -0.231374 -1.348389 -2.604459 20.112204 -8.488985 -6.644229 -0.037550 0.077044 0.000000 -0.000000 -0.000000 -18.479478 -8.763647 -11.717327 34.687071 0.318283 1.330854 -15.475117 -9.867788 9.621749 -0.000028 -0.112410 -0.000006 0.000000 -0.000000 -0.000000 
0.457396 189.998993 0.543709 1.831195 -40.562253 -1.153827 2.677967 0.482241 0.890292 5.355012 0.951822 1.261742 5.355010 0.951822 1.261741 8.607336 3.517147 5.735738 0.037276 27.648288 -15.234891 -0.000000 -0.000000 -0.000000 -0.000000 -0.000000 -0.000000 -0.000000 -0.000000 -0.000000 0.355359 -6.839780 -9.520170 -57.179745 -33.707947 -55.481476 0.063088 -52.185814 0.105307 -102.989233 -1.633083 14.590432 1.545973 -9.541003 -47.219024 -5.379895 -4.130107 -98.553913 -0.000000 -0.000003 -0.000002 -0.000000 0.000001 0.000004 -11.681337 -1.386989 19.278772 -2.561586 1.557948 2.733567 0.000014 0.000002 0.000006 -0.000001 0.000000 0.000002 -0.008664 -2.430605 1.545785 1.412638 1.230429 -113.773664 0.000011 -0.000003 -0.000004 0.000002 -0.000002 0.000001 -3.769734 -17.550460 -68.269175 -5.814590 -5.296466 -101.280388 -0.000002 0.000009 0.000001 -0.000002 0.000001 -0.000001 -8.784699 -14.195338 -74.601915 -7.745695 -9.401301 -99.053159 -0.000001 -0.000010 0.000001 -0.000001 -0.000001 -0.000000 0.553353 6.381134 3.044223 -33.808627 72.238779 44.640563 0.284772 71.192127 -0.288951 -56.166029 -2.274418 -20.537634 -2.200713 -2.191365 59.974887 -11.333604 1.304672 101.375348 -0.000009 0.000006 -0.000009 0.000002 -0.000001 0.000001 11.406791 -0.745919 10.777392 17.778426 -14.832283 -11.843361 0.000004 -0.000004 -0.000002 0.000001 -0.000000 -0.000000 -7.766729 -2.132701 17.127367 -0.780859 -1.851314 83.350062 0.000016 -0.000003 -0.000002 0.000002 0.000000 -0.000001 -6.662044 -2.169621 74.620090 -15.926966 7.668129 95.919932 -0.000009 -0.000003 -0.000006 0.000000 0.000002 -0.000002 -13.810325 -5.738192 81.209631 -9.284887 9.771656 84.621304 0.000004 0.000003 0.000008 -0.000002 0.000000 0.000001 -32.551510 8.433423 18.562238 36.687664 -0.235132 -1.363576 -2.940339 20.296834 -8.468940 -6.644179 -0.037536 0.077042 -0.000000 0.000000 0.000000 -18.505445 -8.632496 -11.688650 34.816152 0.318298 1.334765 -15.541600 -9.771865 9.716939 0.000056 -0.112307 -0.000005 0.000000 -0.000002 0.000000 
